<svg width="20" height="20" viewBox="0 0 20 20" fill="none" xmlns="http://www.w3.org/2000/svg">
<path fill-rule="evenodd" clip-rule="evenodd" d="M19.6 9.9999C19.6 12.546 18.5886 14.9878 16.7882 16.7881C14.9879 18.5885 12.5461 19.5999 10 19.5999C7.45395 19.5999 5.01215 18.5885 3.2118 16.7881C1.41145 14.9878 0.400024 12.546 0.400024 9.9999C0.400024 7.45382 1.41145 5.01203 3.2118 3.21168C5.01215 1.41133 7.45395 0.399902 10 0.399902C12.5461 0.399902 14.9879 1.41133 16.7882 3.21168C18.5886 5.01203 19.6 7.45382 19.6 9.9999V9.9999ZM12.4 6.3999C12.4 7.03642 12.1472 7.64687 11.6971 8.09696C11.247 8.54704 10.6365 8.7999 10 8.7999C9.3635 8.7999 8.75306 8.54704 8.30297 8.09696C7.85288 7.64687 7.60002 7.03642 7.60002 6.3999C7.60002 5.76338 7.85288 5.15293 8.30297 4.70285C8.75306 4.25276 9.3635 3.9999 10 3.9999C10.6365 3.9999 11.247 4.25276 11.6971 4.70285C12.1472 5.15293 12.4 5.76338 12.4 6.3999V6.3999ZM10 11.1999C8.85115 11.1997 7.72636 11.5293 6.75932 12.1496C5.79229 12.7699 5.02368 13.6548 4.54482 14.6991C5.22004 15.4846 6.05715 16.1148 6.99876 16.5465C7.94036 16.9781 8.96419 17.201 10 17.1999C11.0359 17.201 12.0597 16.9781 13.0013 16.5465C13.9429 16.1148 14.78 15.4846 15.4552 14.6991C14.9764 13.6548 14.2078 12.7699 13.2407 12.1496C12.2737 11.5293 11.1489 11.1997 10 11.1999V11.1999Z" fill="#771E99"/>
</svg>
